<mxfile host="app.diagrams.net" modified="2021-06-30T11:08:19.870Z" agent="5.0 (X11)" etag="ksjEXZQ3ksmzckSYvb3c" version="14.8.2" type="github">
  <diagram id="3Id29FnmtK9yHKQGpf35" name="Page-1">
    <mxGraphModel dx="905" dy="758" grid="1" gridSize="10" guides="1" tooltips="1" connect="1" arrows="1" fold="1" page="1" pageScale="1" pageWidth="827" pageHeight="1169" math="0" shadow="0">
      <root>
        <mxCell id="0" />
        <mxCell id="1" parent="0" />
        <mxCell id="1V_xxpfhJ0ZoRhkQnonP-38" value="" style="edgeStyle=entityRelationEdgeStyle;fontSize=12;html=1;endArrow=ERoneToMany;" edge="1" parent="1" source="1V_xxpfhJ0ZoRhkQnonP-45" target="1V_xxpfhJ0ZoRhkQnonP-58">
          <mxGeometry width="100" height="100" relative="1" as="geometry">
            <mxPoint x="570" y="158" as="sourcePoint" />
            <mxPoint x="560" y="138" as="targetPoint" />
          </mxGeometry>
        </mxCell>
        <mxCell id="1V_xxpfhJ0ZoRhkQnonP-43" value="recipe" style="swimlane;fontStyle=0;childLayout=stackLayout;horizontal=1;startSize=26;fillColor=none;horizontalStack=0;resizeParent=1;resizeParentMax=0;resizeLast=0;collapsible=1;marginBottom=0;" vertex="1" parent="1">
          <mxGeometry x="80" y="260" width="140" height="78" as="geometry" />
        </mxCell>
        <mxCell id="1V_xxpfhJ0ZoRhkQnonP-44" value="+ id: bigint" style="text;strokeColor=none;fillColor=none;align=left;verticalAlign=top;spacingLeft=4;spacingRight=4;overflow=hidden;rotatable=0;points=[[0,0.5],[1,0.5]];portConstraint=eastwest;" vertex="1" parent="1V_xxpfhJ0ZoRhkQnonP-43">
          <mxGeometry y="26" width="140" height="26" as="geometry" />
        </mxCell>
        <mxCell id="1V_xxpfhJ0ZoRhkQnonP-45" value="+ type: enum" style="text;strokeColor=none;fillColor=none;align=left;verticalAlign=top;spacingLeft=4;spacingRight=4;overflow=hidden;rotatable=0;points=[[0,0.5],[1,0.5]];portConstraint=eastwest;" vertex="1" parent="1V_xxpfhJ0ZoRhkQnonP-43">
          <mxGeometry y="52" width="140" height="26" as="geometry" />
        </mxCell>
        <mxCell id="1V_xxpfhJ0ZoRhkQnonP-47" value="ingredients" style="swimlane;fontStyle=0;childLayout=stackLayout;horizontal=1;startSize=26;fillColor=none;horizontalStack=0;resizeParent=1;resizeParentMax=0;resizeLast=0;collapsible=1;marginBottom=0;" vertex="1" parent="1">
          <mxGeometry x="580" y="240" width="140" height="78" as="geometry" />
        </mxCell>
        <mxCell id="1V_xxpfhJ0ZoRhkQnonP-48" value="+ id: bigint" style="text;strokeColor=none;fillColor=none;align=left;verticalAlign=top;spacingLeft=4;spacingRight=4;overflow=hidden;rotatable=0;points=[[0,0.5],[1,0.5]];portConstraint=eastwest;" vertex="1" parent="1V_xxpfhJ0ZoRhkQnonP-47">
          <mxGeometry y="26" width="140" height="26" as="geometry" />
        </mxCell>
        <mxCell id="1V_xxpfhJ0ZoRhkQnonP-49" value="+ type: enum" style="text;strokeColor=none;fillColor=none;align=left;verticalAlign=top;spacingLeft=4;spacingRight=4;overflow=hidden;rotatable=0;points=[[0,0.5],[1,0.5]];portConstraint=eastwest;" vertex="1" parent="1V_xxpfhJ0ZoRhkQnonP-47">
          <mxGeometry y="52" width="140" height="26" as="geometry" />
        </mxCell>
        <mxCell id="1V_xxpfhJ0ZoRhkQnonP-50" value="recipe_ingredients" style="swimlane;fontStyle=0;childLayout=stackLayout;horizontal=1;startSize=26;fillColor=none;horizontalStack=0;resizeParent=1;resizeParentMax=0;resizeLast=0;collapsible=1;marginBottom=0;" vertex="1" parent="1">
          <mxGeometry x="340" y="350" width="140" height="78" as="geometry" />
        </mxCell>
        <mxCell id="1V_xxpfhJ0ZoRhkQnonP-51" value="+ id_recipe: bigint" style="text;strokeColor=none;fillColor=none;align=left;verticalAlign=top;spacingLeft=4;spacingRight=4;overflow=hidden;rotatable=0;points=[[0,0.5],[1,0.5]];portConstraint=eastwest;" vertex="1" parent="1V_xxpfhJ0ZoRhkQnonP-50">
          <mxGeometry y="26" width="140" height="26" as="geometry" />
        </mxCell>
        <mxCell id="1V_xxpfhJ0ZoRhkQnonP-52" value="+ id_ingredients: bigint" style="text;strokeColor=none;fillColor=none;align=left;verticalAlign=top;spacingLeft=4;spacingRight=4;overflow=hidden;rotatable=0;points=[[0,0.5],[1,0.5]];portConstraint=eastwest;" vertex="1" parent="1V_xxpfhJ0ZoRhkQnonP-50">
          <mxGeometry y="52" width="140" height="26" as="geometry" />
        </mxCell>
        <mxCell id="1V_xxpfhJ0ZoRhkQnonP-54" value="" style="edgeStyle=entityRelationEdgeStyle;fontSize=12;html=1;endArrow=ERoneToMany;" edge="1" parent="1" source="1V_xxpfhJ0ZoRhkQnonP-52" target="1V_xxpfhJ0ZoRhkQnonP-48">
          <mxGeometry width="100" height="100" relative="1" as="geometry">
            <mxPoint x="450" y="467" as="sourcePoint" />
            <mxPoint x="540" y="431" as="targetPoint" />
          </mxGeometry>
        </mxCell>
        <mxCell id="1V_xxpfhJ0ZoRhkQnonP-55" value="" style="edgeStyle=entityRelationEdgeStyle;fontSize=12;html=1;endArrow=ERoneToMany;" edge="1" parent="1" source="1V_xxpfhJ0ZoRhkQnonP-51" target="1V_xxpfhJ0ZoRhkQnonP-44">
          <mxGeometry width="100" height="100" relative="1" as="geometry">
            <mxPoint x="310" y="290" as="sourcePoint" />
            <mxPoint x="230" y="270" as="targetPoint" />
          </mxGeometry>
        </mxCell>
        <mxCell id="1V_xxpfhJ0ZoRhkQnonP-56" value="item" style="swimlane;fontStyle=0;childLayout=stackLayout;horizontal=1;startSize=26;fillColor=none;horizontalStack=0;resizeParent=1;resizeParentMax=0;resizeLast=0;collapsible=1;marginBottom=0;" vertex="1" parent="1">
          <mxGeometry x="344" y="70" width="140" height="156" as="geometry" />
        </mxCell>
        <mxCell id="1V_xxpfhJ0ZoRhkQnonP-57" value="+ id: bigint" style="text;strokeColor=none;fillColor=none;align=left;verticalAlign=top;spacingLeft=4;spacingRight=4;overflow=hidden;rotatable=0;points=[[0,0.5],[1,0.5]];portConstraint=eastwest;" vertex="1" parent="1V_xxpfhJ0ZoRhkQnonP-56">
          <mxGeometry y="26" width="140" height="26" as="geometry" />
        </mxCell>
        <mxCell id="1V_xxpfhJ0ZoRhkQnonP-58" value="+ type: enum" style="text;strokeColor=none;fillColor=none;align=left;verticalAlign=top;spacingLeft=4;spacingRight=4;overflow=hidden;rotatable=0;points=[[0,0.5],[1,0.5]];portConstraint=eastwest;" vertex="1" parent="1V_xxpfhJ0ZoRhkQnonP-56">
          <mxGeometry y="52" width="140" height="26" as="geometry" />
        </mxCell>
        <mxCell id="1V_xxpfhJ0ZoRhkQnonP-60" value="+ name: varchar" style="text;strokeColor=none;fillColor=none;align=left;verticalAlign=top;spacingLeft=4;spacingRight=4;overflow=hidden;rotatable=0;points=[[0,0.5],[1,0.5]];portConstraint=eastwest;" vertex="1" parent="1V_xxpfhJ0ZoRhkQnonP-56">
          <mxGeometry y="78" width="140" height="26" as="geometry" />
        </mxCell>
        <mxCell id="1V_xxpfhJ0ZoRhkQnonP-59" value="+ calories: float" style="text;strokeColor=none;fillColor=none;align=left;verticalAlign=top;spacingLeft=4;spacingRight=4;overflow=hidden;rotatable=0;points=[[0,0.5],[1,0.5]];portConstraint=eastwest;" vertex="1" parent="1V_xxpfhJ0ZoRhkQnonP-56">
          <mxGeometry y="104" width="140" height="26" as="geometry" />
        </mxCell>
        <mxCell id="1V_xxpfhJ0ZoRhkQnonP-61" value="+ amount: int" style="text;strokeColor=none;fillColor=none;align=left;verticalAlign=top;spacingLeft=4;spacingRight=4;overflow=hidden;rotatable=0;points=[[0,0.5],[1,0.5]];portConstraint=eastwest;" vertex="1" parent="1V_xxpfhJ0ZoRhkQnonP-56">
          <mxGeometry y="130" width="140" height="26" as="geometry" />
        </mxCell>
        <mxCell id="1V_xxpfhJ0ZoRhkQnonP-62" value="" style="edgeStyle=entityRelationEdgeStyle;fontSize=12;html=1;endArrow=ERoneToMany;" edge="1" parent="1" source="1V_xxpfhJ0ZoRhkQnonP-49" target="1V_xxpfhJ0ZoRhkQnonP-58">
          <mxGeometry width="100" height="100" relative="1" as="geometry">
            <mxPoint x="510" y="440" as="sourcePoint" />
            <mxPoint x="654" y="170" as="targetPoint" />
          </mxGeometry>
        </mxCell>
      </root>
    </mxGraphModel>
  </diagram>
</mxfile>
